<svg width="50" height="50" viewBox="0 0 50 50" fill="none" xmlns="http://www.w3.org/2000/svg">
<path d="M2.5 17.9286C2.5 12.5281 2.5 9.82782 3.55101 7.7651C4.4755 5.95066 5.95066 4.4755 7.7651 3.55101C9.82782 2.5 12.5281 2.5 17.9286 2.5H32.0714C37.4719 2.5 40.1722 2.5 42.2348 3.55101C44.0493 4.4755 45.5245 5.95066 46.4489 7.7651C47.5 9.82782 47.5 12.5281 47.5 17.9286V32.0714C47.5 37.4719 47.5 40.1722 46.4489 42.2348C45.5245 44.0493 44.0493 45.5245 42.2348 46.4489C40.1722 47.5 37.4719 47.5 32.0714 47.5H17.9286C12.5281 47.5 9.82782 47.5 7.7651 46.4489C5.95066 45.5245 4.4755 44.0493 3.55101 42.2348C2.5 40.1722 2.5 37.4719 2.5 32.0714V17.9286Z" fill="#5865F2"/>
<path d="M35.4996 15.8425C33.5415 14.9817 31.4477 14.3562 29.2588 14C28.99 14.4566 28.6759 15.0708 28.4594 15.5594C26.1325 15.2306 23.827 15.2306 21.5428 15.5594C21.3264 15.0708 21.0051 14.4566 20.7339 14C18.5426 14.3562 16.4465 14.984 14.4884 15.847C10.5388 21.4543 9.46813 26.9224 10.0035 32.3128C12.623 34.1508 15.1617 35.2671 17.6575 35.9977C18.2738 35.201 18.8234 34.354 19.2969 33.4612C18.3951 33.1393 17.5314 32.7421 16.7154 32.2808C16.9319 32.1302 17.1437 31.9726 17.3483 31.8105C22.3258 33.9977 27.7336 33.9977 32.6517 31.8105C32.8587 31.9726 33.0704 32.1302 33.2845 32.2808C32.4661 32.7443 31.6 33.1415 30.6983 33.4635C31.1717 34.354 31.7189 35.2032 32.3376 36C34.8358 35.2695 37.3768 34.153 39.9964 32.3128C40.6245 26.064 38.9234 20.6461 35.4996 15.8425ZM19.9749 28.9978C18.4807 28.9978 17.2555 27.6872 17.2555 26.0913C17.2555 24.4955 18.4546 23.1827 19.9749 23.1827C21.4953 23.1827 22.7205 24.4932 22.6944 26.0913C22.6969 27.6872 21.4953 28.9978 19.9749 28.9978ZM30.0249 28.9978C28.5307 28.9978 27.3055 27.6872 27.3055 26.0913C27.3055 24.4955 28.5046 23.1827 30.0249 23.1827C31.5453 23.1827 32.7707 24.4932 32.7444 26.0913C32.7444 27.6872 31.5453 28.9978 30.0249 28.9978Z" fill="white"/>
</svg>
